<?xml version="1.0" encoding="UTF-8"?>
<svg id="Layer_1" data-name="Layer 1" xmlns="http://www.w3.org/2000/svg" viewBox="0 0 24 24">
  <path d="m1.26,21.73c5.53-3.64,5.37-6.64.78-11.05,0,0,1.88.28,1.88.28,5.54.62,11.08,4.09,8.62,10.38,0,0-1.32-1.21-1.32-1.21,2.75-1.26,4.73-3.46,4.52-6.6-.27-4.14-2.26-8.37-3.61-12.31,3.44,2.99,7.03,6.26,9.05,10.42,1.57,3.12,2.17,6.76,1.39,10.09.63-6.9-3.93-12.77-9-16.91,0,0,1.37-.97,1.37-.97,2.79,6.57,5.45,14.35-2.89,18.01,0,0-2.15,1.04-2.15,1.04l.83-2.25c1.5-3.47-.41-6.14-3.72-7.4-1.06-.44-2.19-.74-3.33-1l.61-1.09c3.83,4.47,1.95,8.39-3.04,10.56h0Z"/>
</svg>