<?xml version="1.0" encoding="UTF-8"?>
<svg id="Layer_2" data-name="Layer 2" xmlns="http://www.w3.org/2000/svg" viewBox="0 0 24 24">
  <path d="m11.27,1.08l.8,2.86c.77,2.36.28,4.86-.95,6.97-1.38-1.38-2.39-3.25-3.66-4.79-6,5.04-5.39,12.19.71,16.81-4.06-4.31-5.25-9.88-.97-14.15.95,1.47,1.89,3.13,3.54,4.39,0,0,.79.6.79.6,1.77-2.16,2.97-4.95,2.88-7.75.76.64,1.48,1.32,2.14,2.05,2.52,2.63,3.87,6.31,2.29,9.8-.71,1.7-1.82,3.27-3.05,4.74,1.46-1.23,2.83-2.65,3.79-4.39,4.02-7.12-3.02-13.31-8.31-17.14Z"/>
  <path d="m18.5,5.36c.39,1.21,1.07,2.08,1.59,3.09.56.99.87,2.02,1.62,3.04,1.66-2.49-.27-6.01-3.22-6.12Z"/>
  <path d="m3.37,10.03c-1.96,1.32-2.25,4.18-.74,5.96.07-1.12-.1-2.12.02-3.03.08-.92.49-1.82.71-2.93Z"/>
  <path d="m15.19,8.64c-.29,2.4-1.77,4.74-3.72,6.15-1.59-.72-2.86-2.19-3.95-3.55l-.18-.23s-.17.24-.17.24c-2.86,3.67-1.08,8.75,1.97,11.68-2.75-2.97-4.34-7.68-1.78-11.19.52.67,1.08,1.31,1.69,1.9.71.67,1.48,1.33,2.46,1.7.64-.35,1.09-.81,1.55-1.28,1.18-1.26,2.1-2.81,2.45-4.51.84.75,1.56,1.64,2.02,2.67,1.68,3.63-.21,7.68-2.7,10.49,4.11-3.93,5.45-10.28.37-14.05Z"/>
  <path d="m14.15,22.75c2.49-2.65,4.49-7.08,1.84-10.29l-.09-.12s-.08.12-.08.12c-1.16,1.64-2.56,3.24-4.18,4.42-.69-.28-1.33-.7-1.95-1.15-.67-.5-1.32-1.03-1.82-1.68-1.44,3.04-.36,6.63,2.01,8.86-2.17-2.22-3.22-5.58-1.95-8.51,1.04,1.16,2.3,2.1,3.73,2.73,1.71-1.17,3.07-2.75,4.25-4.43,2.49,3.13.54,7.35-1.75,10.04Z"/>
</svg>