<?xml version="1.0" encoding="UTF-8"?>
<svg id="Layer_3" data-name="Layer 3" xmlns="http://www.w3.org/2000/svg" viewBox="0 0 24 24">
  <polygon points="12.75 22.92 5.31 13.87 7 9.06 1.92 7.83 6.02 3.4 1.81 3.4 1.81 1.4 10.6 1.4 5.71 6.69 9.62 7.63 7.57 13.47 11.27 17.97 11.8 13.08 14.8 7.69 10.41 6.34 15.89 1.4 22.01 1.4 22.01 3.4 16.66 3.4 14.37 5.46 17.74 6.5 13.75 13.7 12.75 22.92"/>
  <path d="m10.51,5.38l-2.15-1.18,1.92-1.48,1.13,1.07-.91,1.6Zm-1.24-1.25l1.05.58.47-.82-.54-.51-.98.76Z"/>
  <path d="m13.99,2.63l-2.12-1.01,2.44-.89-.32,1.9Zm-.83-.95l.44.21.07-.4-.51.19Z"/>
</svg>